<?xml version="1.0" encoding="utf-8"?>
<!-- Generator: Adobe Illustrator 27.5.0, SVG Export Plug-In . SVG Version: 6.00 Build 0)  -->
<svg version="1.1" xmlns="http://www.w3.org/2000/svg" xmlns:xlink="http://www.w3.org/1999/xlink" x="0px" y="0px"
	 viewBox="0 0 2200 2200" style="enable-background:new 0 0 2200 2200;" xml:space="preserve">
<g id="background">
	<rect style="fill:#FFFFFF;" width="2200" height="2200"/>
</g>
<g id="Objects">
	<g>
		<path style="fill:#D6E1E8;" d="M1934.624,588.009v1174.255c0,22.091-17.909,40-40,40H877.904c-22.091,0-40-17.909-40-40V325.554
			c0-22.091,17.909-40,40-40h754.265L1934.624,588.009z"/>
		<path style="fill:#AAC1CE;" d="M1934.624,588.009h-268.455c-18.778,0-34-15.222-34-34V285.554L1934.624,588.009z"/>
		<path style="fill:#AAC1CE;" d="M1425.023,1540.725h-387.297c-10.633,0-19.253,8.619-19.253,19.253
			c0,10.633,8.619,19.252,19.253,19.252h387.297c10.633,0,19.253-8.619,19.253-19.252
			C1444.275,1549.344,1435.656,1540.725,1425.023,1540.725z"/>
		<path style="fill:#AAC1CE;" d="M1734.801,1353.132h-697.075c-10.633,0-19.253,8.62-19.253,19.253s8.619,19.252,19.253,19.252
			h697.075c10.633,0,19.253-8.619,19.253-19.252S1745.434,1353.132,1734.801,1353.132z"/>
		<path style="fill:#AAC1CE;" d="M1734.801,1165.54h-697.075c-10.633,0-19.253,8.62-19.253,19.253s8.619,19.253,19.253,19.253
			h697.075c10.633,0,19.253-8.62,19.253-19.253S1745.434,1165.54,1734.801,1165.54z"/>
		<path style="fill:#AAC1CE;" d="M1734.801,977.949h-697.075c-10.633,0-19.253,8.619-19.253,19.253
			c0,10.633,8.619,19.253,19.253,19.253h697.075c10.633,0,19.253-8.619,19.253-19.253
			C1754.053,986.568,1745.434,977.949,1734.801,977.949z"/>
		<path style="fill:#AAC1CE;" d="M1734.801,790.357h-697.075c-10.633,0-19.253,8.619-19.253,19.252s8.619,19.252,19.253,19.252
			h697.075c10.633,0,19.253-8.619,19.253-19.252S1745.434,790.357,1734.801,790.357z"/>
		<g>
			<path style="fill:#4FD7FC;" d="M1125.498,1054.321c113.151,113.151,133.026,284.253,59.624,417.759
				c-8.497,15.471-18.245,30.437-29.256,44.746c-5.654,7.36-11.649,14.543-17.967,21.53c-3.999,4.428-8.137,8.781-12.401,13.045
				c-31.574,31.574-67.666,55.89-106.196,72.928c-128.945,57.078-285.194,32.762-390.884-72.928s-130.006-261.939-72.928-390.884
				c17.038-38.53,41.354-74.621,72.928-106.196c4.264-4.264,8.617-8.402,13.045-12.401c6.987-6.318,14.17-12.313,21.53-17.967
				c14.309-11.011,29.275-20.759,44.746-29.256C841.245,921.295,1012.346,941.17,1125.498,1054.321z"/>
			<path style="fill:#88E9FF;" d="M641.463,1041.92l496.436,496.436c-3.999,4.428-8.137,8.781-12.401,13.045
				c-31.574,31.574-67.666,55.89-106.196,72.928l-463.813-463.813c17.038-38.53,41.354-74.621,72.928-106.196
				C632.682,1050.057,637.034,1045.919,641.463,1041.92z"/>
			<path style="fill:#88E9FF;" d="M707.739,994.697l477.383,477.383c-8.497,15.471-18.245,30.437-29.256,44.746l-492.873-492.873
				C677.302,1012.942,692.268,1003.194,707.739,994.697z"/>
			<path style="fill:#23333A;" d="M1223.409,1443.524c18.164-44.793,27.374-92.118,27.375-140.66
				c0-48.542-9.21-95.867-27.375-140.66c-18.81-46.387-46.438-87.997-82.116-123.675c-35.678-35.678-77.288-63.306-123.675-82.116
				c-44.793-18.165-92.118-27.375-140.66-27.375c-48.542,0-95.867,9.21-140.659,27.375c-46.387,18.81-87.997,46.438-123.675,82.116
				c-35.678,35.678-63.306,77.288-82.116,123.675c-18.164,44.793-27.374,92.118-27.374,140.659s9.21,95.866,27.374,140.66
				c13.556,33.428,31.692,64.374,54.118,92.409l-40.736,40.736l59.265,59.265l40.736-40.736
				c28.034,22.427,58.981,40.562,92.409,54.118c44.793,18.164,92.118,27.374,140.659,27.374c48.542,0,95.866-9.21,140.66-27.374
				c46.386-18.811,87.997-46.439,123.675-82.117C1176.971,1531.521,1204.599,1489.91,1223.409,1443.524z M876.959,1632.018
				c-87.92,0-170.578-34.238-232.747-96.407c-62.169-62.169-96.407-144.827-96.407-232.747c0-87.92,34.238-170.578,96.407-232.747
				c62.169-62.169,144.827-96.407,232.747-96.407s170.578,34.238,232.747,96.407c62.169,62.169,96.407,144.827,96.407,232.747
				c0,87.92-34.238,170.578-96.407,232.747C1047.537,1597.78,964.879,1632.019,876.959,1632.018z"/>
			<path style="fill:#BC723F;" d="M588.521,1672.586l-230.382,230.382c-15.303,15.303-40.117,15.303-55.42,0l-25.868-25.868
				c-15.303-15.303-15.297-40.112,0.005-55.415l230.382-230.382l15.299-3.566l69.802,69.802L588.521,1672.586z"/>
			<path style="fill:#C7D7E0;" d="M617.195,1643.913l-28.673,28.673l-81.283-81.283l28.673-28.673
				c4.482-4.482,11.742-4.482,16.224,0l65.06,65.06C621.677,1632.171,621.677,1639.431,617.195,1643.913z"/>
		</g>
	</g>
</g>
</svg>
